<svg width="22" height="22" viewBox="0 0 22 22" fill="none" xmlns="http://www.w3.org/2000/svg">
<path d="M10.625 0.035114C9.66353 0.0249866 8.73717 0.396247 8.04879 1.06761L1.06754 8.04886C0.728819 8.38696 0.460095 8.78853 0.276747 9.23059C0.0933981 9.67265 -0.000976562 10.1465 -0.000976562 10.6251C-0.000976562 11.1037 0.0933981 11.5776 0.276747 12.0196C0.460095 12.4617 0.728819 12.8633 1.06754 13.2014L8.04879 20.1826C8.38688 20.5213 8.78845 20.7901 9.23051 20.9734C9.67258 21.1568 10.1465 21.2511 10.625 21.2511C11.1036 21.2511 11.5775 21.1568 12.0196 20.9734C12.4616 20.7901 12.8632 20.5213 13.2013 20.1826L20.1825 13.2014C20.5213 12.8633 20.79 12.4617 20.9733 12.0196C21.1567 11.5776 21.2511 11.1037 21.2511 10.6251C21.2511 10.1465 21.1567 9.67265 20.9733 9.23059C20.79 8.78853 20.5213 8.38696 20.1825 8.04886L13.2013 1.06761C12.5129 0.396247 11.5865 0.0249866 10.625 0.035114ZM10.625 19.9764C9.99349 19.9832 9.38495 19.7396 8.93254 19.2989L1.95129 12.3176C1.7289 12.0954 1.55248 11.8316 1.43211 11.5412C1.31175 11.2508 1.24979 10.9395 1.24979 10.6251C1.24979 10.3107 1.31175 9.99946 1.43211 9.70906C1.55248 9.41865 1.7289 9.15481 1.95129 8.93261L8.93254 1.95136C9.38867 1.5164 9.99476 1.27374 10.625 1.27374C11.2553 1.27374 11.8614 1.5164 12.3175 1.95136L19.2988 8.93261C19.5212 9.15481 19.6976 9.41865 19.818 9.70906C19.9383 9.99946 20.0003 10.3107 20.0003 10.6251C20.0003 10.9395 19.9383 11.2508 19.818 11.5412C19.6976 11.8316 19.5212 12.0954 19.2988 12.3176L12.3175 19.2989C11.8651 19.7396 11.2566 19.9832 10.625 19.9764V19.9764ZM10.625 5.62511C9.63048 5.62511 8.67665 6.0202 7.97339 6.72346C7.27012 7.42672 6.87504 8.38055 6.87504 9.37511V13.7501C6.87504 13.9159 6.94088 14.0748 7.0581 14.1921C7.17531 14.3093 7.33428 14.3751 7.50004 14.3751C7.6658 14.3751 7.82477 14.3093 7.94198 14.1921C8.05919 14.0748 8.12504 13.9159 8.12504 13.7501V9.37511C8.12504 8.71207 8.38843 8.07619 8.85727 7.60735C9.32611 7.13851 9.962 6.87511 10.625 6.87511C11.2881 6.87511 11.924 7.13851 12.3928 7.60735C12.8616 8.07619 13.125 8.71207 13.125 9.37511V12.8664L12.9425 12.6826C12.8252 12.5653 12.666 12.4993 12.5 12.4993C12.3341 12.4993 12.1749 12.5653 12.0575 12.6826C11.9402 12.8 11.8742 12.9591 11.8742 13.1251C11.8742 13.2911 11.9402 13.4503 12.0575 13.5676L13.3075 14.8176C13.3656 14.8758 13.4346 14.922 13.5105 14.9535C13.5864 14.985 13.6678 15.0012 13.75 15.0012C13.8322 15.0012 13.9136 14.985 13.9896 14.9535C14.0655 14.922 14.1345 14.8758 14.1925 14.8176L15.4425 13.5676C15.5599 13.4503 15.6258 13.2911 15.6258 13.1251C15.6258 12.9591 15.5599 12.8 15.4425 12.6826C15.3252 12.5653 15.166 12.4993 15 12.4993C14.8341 12.4993 14.6749 12.5653 14.5575 12.6826L14.375 12.8664V9.37511C14.375 8.38055 13.9799 7.42672 13.2767 6.72346C12.5734 6.0202 11.6196 5.62511 10.625 5.62511V5.62511Z" fill="#000D2F"/>
</svg>
