<svg width="18" height="17" viewBox="0 0 18 17" fill="none" xmlns="http://www.w3.org/2000/svg">
<path d="M13.4501 2.9414C13.2523 2.9414 13.059 2.99785 12.8945 3.1036C12.7301 3.20935 12.6019 3.35965 12.5262 3.53551C12.4505 3.71136 12.4307 3.90487 12.4693 4.09155C12.5079 4.27824 12.6031 4.44972 12.743 4.58431C12.8828 4.71891 13.061 4.81056 13.255 4.8477C13.449 4.88483 13.65 4.86577 13.8328 4.79293C14.0155 4.72009 14.1717 4.59674 14.2816 4.43847C14.3914 4.28021 14.4501 4.09414 14.4501 3.9038C14.4501 3.64855 14.3447 3.40377 14.1572 3.22328C13.9697 3.0428 13.7153 2.9414 13.4501 2.9414ZM17.2834 4.88223C17.2672 4.21681 17.1377 3.55846 16.9001 2.93338C16.6882 2.39856 16.3584 1.91427 15.9334 1.51385C15.5208 1.10277 15.0164 0.787389 14.4584 0.591561C13.8106 0.355904 13.1258 0.228426 12.4334 0.214624C11.5501 0.166504 11.2667 0.166504 9.00008 0.166504C6.73342 0.166504 6.45008 0.166504 5.56675 0.214624C4.87438 0.228426 4.18953 0.355904 3.54175 0.591561C2.98481 0.789372 2.48086 1.10448 2.06675 1.51385C1.6396 1.91098 1.3119 2.3964 1.10841 2.93338C0.863549 3.55681 0.73109 4.2159 0.716748 4.88223C0.666748 5.73234 0.666748 6.00502 0.666748 8.18645C0.666748 10.3679 0.666748 10.6406 0.716748 11.4907C0.73109 12.157 0.863549 12.8161 1.10841 13.4395C1.3119 13.9765 1.6396 14.4619 2.06675 14.859C2.48086 15.2684 2.98481 15.5835 3.54175 15.7813C4.18953 16.017 4.87438 16.1445 5.56675 16.1583C6.45008 16.2064 6.73342 16.2064 9.00008 16.2064C11.2667 16.2064 11.5501 16.2064 12.4334 16.1583C13.1258 16.1445 13.8106 16.017 14.4584 15.7813C15.0164 15.5855 15.5208 15.2701 15.9334 14.859C16.3603 14.4601 16.6904 13.9754 16.9001 13.4395C17.1377 12.8144 17.2672 12.1561 17.2834 11.4907C17.2834 10.6406 17.3334 10.3679 17.3334 8.18645C17.3334 6.00502 17.3334 5.73234 17.2834 4.88223ZM15.7834 11.3944C15.7773 11.9035 15.6815 12.4079 15.5001 12.8861C15.367 13.2352 15.1533 13.5505 14.8751 13.8084C14.6048 14.0735 14.2778 14.2787 13.9167 14.4099C13.4198 14.5846 12.8957 14.6768 12.3667 14.6826C11.5334 14.7227 11.2251 14.7307 9.03341 14.7307C6.84175 14.7307 6.53341 14.7307 5.70008 14.6826C5.15082 14.6925 4.60391 14.6111 4.08341 14.442C3.73823 14.3041 3.42621 14.0994 3.16675 13.8405C2.89016 13.5829 2.67912 13.2672 2.55008 12.9182C2.34663 12.4331 2.23378 11.9173 2.21675 11.3944C2.21675 10.5924 2.16675 10.2957 2.16675 8.18645C2.16675 6.0772 2.16675 5.78046 2.21675 4.97847C2.22048 4.45802 2.31921 3.94225 2.50841 3.45468C2.65512 3.11617 2.8803 2.81442 3.16675 2.57249C3.41993 2.29674 3.73282 2.07773 4.08341 1.93089C4.59137 1.75449 5.12675 1.66229 5.66675 1.65821C6.50008 1.65821 6.80841 1.61009 9.00008 1.61009C11.1917 1.61009 11.5001 1.61009 12.3334 1.65821C12.8624 1.66405 13.3865 1.75625 13.8834 1.93089C14.2621 2.06615 14.602 2.28605 14.8751 2.57249C15.1482 2.81884 15.3615 3.12003 15.5001 3.45468C15.6853 3.94304 15.7812 4.4586 15.7834 4.97847C15.8251 5.78046 15.8334 6.0772 15.8334 8.18645C15.8334 10.2957 15.8251 10.5924 15.7834 11.3944ZM9.00008 4.07222C8.15492 4.0738 7.32922 4.31644 6.62729 4.76948C5.92537 5.22252 5.37873 5.86563 5.05644 6.61755C4.73416 7.36946 4.65068 8.19645 4.81658 8.994C4.98247 9.79155 5.39028 10.5239 5.98848 11.0985C6.58668 11.6731 7.34842 12.0641 8.17746 12.2222C9.00651 12.3803 9.86564 12.2984 10.6463 11.9867C11.427 11.6751 12.0941 11.1478 12.5635 10.4714C13.0329 9.79495 13.2834 8.99982 13.2834 8.18645C13.2845 7.64518 13.1744 7.10905 12.9594 6.60889C12.7445 6.10873 12.4289 5.6544 12.0308 5.27204C11.6327 4.88968 11.16 4.58684 10.6399 4.38093C10.1198 4.17502 9.56249 4.0701 9.00008 4.07222ZM9.00008 10.8571C8.45124 10.8571 7.91472 10.7005 7.45837 10.407C7.00203 10.1136 6.64635 9.69645 6.43632 9.20846C6.22628 8.72046 6.17133 8.18349 6.2784 7.66543C6.38548 7.14738 6.64977 6.67151 7.03786 6.29802C7.42595 5.92452 7.92041 5.67017 8.45871 5.56712C8.997 5.46407 9.55496 5.51696 10.062 5.7191C10.5691 5.92123 11.0025 6.26353 11.3074 6.70272C11.6123 7.1419 11.7751 7.65824 11.7751 8.18645C11.7751 8.53716 11.7033 8.88444 11.5638 9.20846C11.4244 9.53247 11.22 9.82688 10.9623 10.0749C10.7046 10.3229 10.3987 10.5196 10.062 10.6538C9.72535 10.788 9.3645 10.8571 9.00008 10.8571Z" fill="white"/>
</svg>
