<svg width="30" height="30" viewBox="0 0 30 30" fill="none" xmlns="http://www.w3.org/2000/svg">
<g clip-path="url(#clip0_3_117)">
<path d="M9.66799 -4.77061e-05C6.345 0.0812414 3.15324 1.83187 1.37697 4.92183C-0.33122 7.89333 -0.384085 11.553 1.25979 14.5605L1.34768 14.7363C1.34594 14.8251 1.34768 14.9107 1.34768 15C1.34768 15.0874 1.34601 15.1766 1.34768 15.2636L1.25979 15.4394C-0.384085 18.4469 -0.33122 22.1066 1.37697 25.0781C3.40699 28.6095 7.29578 30.4051 11.1035 29.9414C12.3728 29.7868 13.6471 29.3876 14.8242 28.7109L15 28.5937L15.2051 28.7109C16.3822 29.3876 17.6273 29.7868 18.8965 29.9414C22.7043 30.4051 26.593 28.6095 28.6231 25.0781C30.3313 22.1066 30.3841 18.4469 28.7403 15.4394L28.5352 15.0585C28.5353 15.0392 28.5352 15.0193 28.5352 15C28.5352 14.9802 28.5353 14.9611 28.5352 14.9414L28.7403 14.5605C30.3841 11.553 30.3313 7.89333 28.6231 4.92183C26.593 1.39045 22.7043 -0.405235 18.8965 0.058546C17.6273 0.21314 16.3822 0.612327 15.2051 1.28901L15 1.4062L14.8242 1.28901C13.6471 0.612327 12.3728 0.21314 11.1035 0.058546C10.6276 0.000573386 10.1427 -0.0116604 9.66799 -4.77061e-05ZM10.1367 0.937452C11.1432 0.962224 12.1497 1.17318 13.125 1.55269C11.8967 1.71976 10.7131 2.044 9.60939 2.51948C9.5992 2.52881 9.58943 2.53859 9.5801 2.54878C6.08498 4.06647 3.35744 7.00829 2.10939 10.6347C2.10535 10.6465 2.08412 10.6522 2.0801 10.664C2.05518 10.7001 2.03545 10.7396 2.0215 10.7812C1.99945 10.848 1.98395 10.9191 1.96291 10.9863C1.86512 11.3001 1.77436 11.6298 1.69924 11.9531C1.63392 12.2339 1.57091 12.5156 1.52346 12.8027C0.665416 10.3786 0.891554 7.6619 2.19729 5.39058C3.88454 2.45551 6.97919 0.859734 10.1367 0.937452ZM19.8633 0.937452C23.0295 0.859734 26.1448 2.45551 27.8321 5.39058C29.1916 7.75547 29.3456 10.5966 28.3594 13.0957C28.3195 12.8223 28.2983 12.5434 28.2422 12.2753C28.0575 11.3796 27.7748 10.5205 27.4219 9.69722C27.4096 9.66847 27.4051 9.63797 27.3926 9.60933C25.875 6.13555 22.9411 3.41681 19.336 2.16792C19.3266 2.15773 19.3169 2.14795 19.3067 2.13862C19.2981 2.13568 19.2859 2.14155 19.2774 2.13862C19.2412 2.1137 19.2018 2.09398 19.1602 2.08003C18.4246 1.83806 17.6603 1.66573 16.875 1.55269C17.8514 1.17317 18.8541 0.962225 19.8633 0.937452ZM14.7656 2.3437C14.8245 2.34289 14.8824 2.3437 14.9414 2.3437C15.3764 2.3437 15.8065 2.38817 16.2305 2.43159C16.3842 2.45222 16.5472 2.46358 16.6992 2.49019C16.7293 2.49441 16.7572 2.51505 16.7871 2.51948C17.3263 2.61796 17.8496 2.7515 18.3692 2.90034L16.7578 7.26558C16.1731 7.13046 15.5692 7.0312 14.9414 7.0312C14.5067 7.0312 14.0909 7.07013 13.6817 7.14839C13.2682 7.21328 12.8697 7.31613 12.4805 7.44136L10.4883 3.19331C11.1822 2.92978 11.9124 2.72461 12.6563 2.57808C13.3415 2.45181 14.0477 2.35367 14.7656 2.3437ZM19.2774 3.13472C22.416 4.28996 24.9808 6.66269 26.3965 9.66792L22.1778 11.6308C21.2926 9.72117 19.6627 8.25031 17.666 7.52925L19.2774 3.13472ZM9.63869 3.54487L11.6016 7.79292C9.69378 8.6709 8.19907 10.2588 7.47072 12.246L3.07619 10.6347C4.24395 7.49819 6.62304 4.94895 9.63869 3.54487ZM14.9414 7.9687C15.2905 7.9687 15.6354 8.00649 15.9668 8.05659C15.997 8.06085 16.0247 8.08126 16.0547 8.08589C16.3539 8.1352 16.6457 8.17772 16.9336 8.26167C16.9518 8.26689 16.9741 8.25631 16.9922 8.26167C17.0015 8.27186 17.0113 8.28164 17.0215 8.29097C19.0663 8.90846 20.6963 10.3985 21.4746 12.3632C21.4743 12.373 21.4743 12.3828 21.4746 12.3925C21.5389 12.5568 21.5982 12.7203 21.6504 12.8906C21.7182 13.1117 21.7799 13.3634 21.8262 13.5937C21.8321 13.6237 21.85 13.6515 21.8555 13.6816C21.886 13.8442 21.8947 14.013 21.9141 14.1796C21.9443 14.4512 21.9727 14.7215 21.9727 15C21.9727 15.349 21.9349 15.6939 21.8848 16.0253C21.8347 16.3568 21.7723 16.6747 21.6797 16.9921C21.6785 17.0117 21.6785 17.0312 21.6797 17.0507C21.6736 17.0712 21.6566 17.089 21.6504 17.1093C21.6501 17.1191 21.6501 17.1289 21.6504 17.1386C21.0359 19.1164 19.5842 20.7145 17.6953 21.5039C17.6453 21.5057 17.5958 21.5156 17.5488 21.5332C17.5287 21.5415 17.5091 21.5513 17.4903 21.5625C16.895 21.7917 16.2734 21.9417 15.6153 22.0019C15.3953 22.022 15.1672 22.0312 14.9414 22.0312C14.2441 22.0312 13.585 21.9236 12.9492 21.7382C12.9023 21.7207 12.8528 21.7108 12.8028 21.7089C10.7876 21.0796 9.17854 19.5811 8.40822 17.6367C8.39684 17.6079 8.38995 17.5777 8.37893 17.5488C8.32191 17.4007 8.2794 17.2613 8.23244 17.1093C8.16469 16.8882 8.10294 16.6658 8.05666 16.4355C8.04884 16.3966 8.03455 16.3575 8.02736 16.3183C8.0075 16.2115 7.98376 16.1047 7.96877 15.996C7.95422 15.8897 7.94934 15.7817 7.93947 15.6738C7.91941 15.4544 7.91018 15.2263 7.91018 15C7.91018 14.723 7.93869 14.4769 7.96877 14.2089C7.99093 14.0116 8.01894 13.8147 8.05666 13.623C8.06606 13.5752 8.07561 13.5239 8.08596 13.4765C8.12211 13.3117 8.15681 13.1374 8.20314 12.9785C8.20345 12.9687 8.20345 12.9589 8.20314 12.9492C8.82346 10.8596 10.3755 9.20569 12.3926 8.43745C12.7513 8.29932 13.1241 8.19322 13.5059 8.11519C13.9666 8.02262 14.4506 7.9687 14.9414 7.9687ZM26.7481 10.5468C26.8798 10.8938 26.9953 11.2707 27.0996 11.6308C27.204 11.9909 27.29 12.3429 27.3633 12.7148C27.4366 13.0867 27.5006 13.4748 27.5391 13.8574C27.5776 14.2399 27.5977 14.6081 27.5977 15C27.5977 16.1922 27.3547 17.3022 27.041 18.3984L22.7051 16.8164C22.7726 16.5224 22.788 16.214 22.8223 15.9082C22.8558 15.6095 22.9102 15.308 22.9102 15C22.9102 14.7203 22.8862 14.4483 22.8516 14.1796C22.8366 14.0305 22.816 13.8867 22.793 13.7402C22.7894 13.7216 22.7967 13.7002 22.793 13.6816C22.7268 13.2789 22.6529 12.8891 22.5293 12.5097L26.7481 10.5468ZM2.84182 11.5722L7.17775 13.1542C7.03845 13.7474 6.97268 14.3623 6.97268 15C6.97268 15.2171 6.97776 15.4366 7.00197 15.6445C7.05106 16.2665 7.17156 16.8885 7.35353 17.4609L3.13479 19.4238C2.87108 18.7297 2.66603 18.0217 2.51955 17.2851C2.44631 16.9168 2.38222 16.5516 2.34377 16.1718C2.32167 15.9535 2.32413 15.7202 2.31447 15.498C2.30788 15.3314 2.28518 15.1681 2.28518 15C2.28518 14.8308 2.30523 14.6689 2.31447 14.5019C2.3195 14.3748 2.30567 14.2472 2.31447 14.121C2.31927 14.0704 2.33823 14.0251 2.34377 13.9746C2.37009 13.7346 2.39043 13.5071 2.43166 13.2714C2.53148 12.7008 2.68444 12.1209 2.84182 11.5722ZM28.3887 16.9335C29.3587 19.4236 29.1849 22.256 27.8321 24.6093C25.6023 28.4882 20.8912 30.0341 16.8457 28.4472C21.9711 27.7146 26.1868 24.101 27.8028 19.3066C27.8277 19.2705 27.8474 19.231 27.8613 19.1894C27.8779 19.1392 27.904 19.0933 27.9199 19.0429C27.9562 18.9271 27.9746 18.8085 28.0078 18.6914C28.0975 18.3794 28.175 18.0731 28.2422 17.7539C28.2996 17.4809 28.3483 17.2121 28.3887 16.9335ZM1.52346 17.1972C1.62657 17.8294 1.77492 18.4424 1.96291 19.0429C2.09689 19.4676 2.25912 19.8673 2.43166 20.2734C2.44561 20.315 2.46533 20.3545 2.49025 20.3906C4.02728 23.9108 6.99342 26.6644 10.6641 27.8906C10.6734 27.9008 10.6832 27.9105 10.6934 27.9199C10.7023 27.9228 10.7138 27.9169 10.7227 27.9199C10.7433 27.9267 10.7606 27.9425 10.7813 27.9492C10.9039 27.9888 11.038 28.0009 11.1621 28.0371C11.4163 28.1111 11.6636 28.1828 11.9238 28.2421C12.3173 28.3326 12.7197 28.4214 13.125 28.4765C9.09217 30.0401 4.42046 28.4767 2.19729 24.6093C0.891554 22.338 0.665416 19.6213 1.52346 17.1972ZM22.4414 17.7246L26.8067 19.3359C25.6449 22.4922 23.2736 25.0737 20.2442 26.4843L18.3106 22.2363C20.2264 21.3468 21.7245 19.7316 22.4414 17.7246ZM7.7051 18.3398C8.58105 20.257 10.1934 21.7398 12.1875 22.4707L10.5762 26.8652C7.43078 25.6983 4.86238 23.3263 3.45705 20.3027L7.7051 18.3398ZM17.4317 22.5878L19.3946 26.8066C18.0065 27.3339 16.5086 27.6562 14.9414 27.6562C14.8818 27.6562 14.825 27.6574 14.7656 27.6562C14.4997 27.6525 14.2365 27.647 13.9746 27.6269C13.1305 27.5398 12.3099 27.3279 11.5137 27.0996L13.0957 22.7636C13.6889 22.9029 14.3037 22.9687 14.9414 22.9687C15.8137 22.9687 16.6482 22.843 17.4317 22.5878Z" fill="#000D2F"/>
</g>
<defs>
<clipPath id="clip0_3_117">
<rect width="30" height="30" fill="white"/>
</clipPath>
</defs>
</svg>
