<svg width="18" height="17" viewBox="0 0 18 17" fill="none" xmlns="http://www.w3.org/2000/svg">
<path d="M4.25043 5.81837C4.25023 5.81837 4.25008 5.81837 4.24992 5.81837H0.916591C0.68659 5.81823 0.500077 5.99758 0.499924 6.21888C0.499924 6.21908 0.499924 6.21922 0.499924 6.21937V15.8433C0.499772 16.0647 0.686132 16.2442 0.916082 16.2443C0.916286 16.2443 0.916438 16.2443 0.916591 16.2443H4.24992C4.47993 16.2444 4.66644 16.0651 4.66659 15.8437C4.66659 15.8436 4.66659 15.8434 4.66659 15.8433V6.21937C4.66674 5.99802 4.48038 5.81852 4.25043 5.81837ZM3.83326 15.4423H1.33326V6.62037H3.83326V15.4423ZM12.9999 5.81837C12.0959 5.81842 11.2171 6.10556 10.4999 6.63525V6.21937C10.5001 5.99802 10.3137 5.81852 10.0838 5.81837C10.0836 5.81837 10.0834 5.81837 10.0833 5.81837H6.74992C6.51992 5.81823 6.33341 5.99758 6.33326 6.21888C6.33326 6.21908 6.33326 6.21922 6.33326 6.21937V15.8433C6.33311 16.0647 6.51947 16.2442 6.74947 16.2443C6.74962 16.2443 6.74977 16.2443 6.74992 16.2443H10.0833C10.3133 16.2444 10.4998 16.0651 10.4999 15.8437C10.4999 15.8436 10.4999 15.8434 10.4999 15.8433V11.4323C10.4999 10.7679 11.0596 10.2293 11.7499 10.2293C12.4403 10.2293 12.9999 10.7679 12.9999 11.4323V15.8433C12.9998 16.0647 13.1861 16.2442 13.4161 16.2443C13.4163 16.2443 13.4164 16.2443 13.4166 16.2443H16.7499C16.9799 16.2444 17.1664 16.0651 17.1666 15.8437C17.1666 15.8436 17.1666 15.8434 17.1666 15.8433V9.82834C17.1639 7.61478 15.3 5.82097 12.9999 5.81837ZM16.3333 15.4423H13.8333V11.4323C13.8333 10.325 12.9005 9.42735 11.7499 9.42735C10.5993 9.42735 9.66659 10.325 9.66659 11.4323V15.4423H7.16659V6.62037H9.66659V7.58527C9.66659 7.75566 9.77859 7.9074 9.94578 7.96355C10.1126 8.02141 10.2991 7.96996 10.4088 7.83589C11.5443 6.451 13.6313 6.21423 15.0703 7.30703C15.8718 7.91577 16.3377 8.84568 16.3333 9.82834V15.4423ZM2.88991 0.205881C2.7919 0.199272 2.69353 0.198783 2.59546 0.204412C1.33773 0.121736 0.24851 1.03597 0.162603 2.2464C0.159145 2.29511 0.157415 2.34386 0.157314 2.39267C0.14648 3.59282 1.14863 4.57416 2.39568 4.58459C2.44659 4.58503 2.49745 4.58376 2.54826 4.58087H2.57186C3.82721 4.66541 4.91602 3.75455 5.00386 2.54642C5.0917 1.33829 4.14525 0.290417 2.88991 0.205881ZM2.86112 3.78118C2.76489 3.78969 2.66794 3.78896 2.57186 3.77888H2.54826C1.7515 3.83781 1.05601 3.26402 0.994767 2.49722C0.933528 1.73047 1.52974 1.06108 2.3265 1.00215C2.41612 0.99554 2.50615 0.996959 2.59546 1.00641C3.39162 0.935821 4.09652 1.49972 4.16992 2.26593C4.24326 3.0322 3.65732 3.71059 2.86112 3.78118Z" fill="white"/>
</svg>
