<svg width="192" height="52" viewBox="0 0 192 52" fill="none" xmlns="http://www.w3.org/2000/svg">
<path d="M71.264 11.012C72.752 11.012 74.04 11.26 75.128 11.756C76.232 12.252 77.08 12.956 77.672 13.868C78.264 14.78 78.56 15.86 78.56 17.108C78.56 18.34 78.264 19.42 77.672 20.348C77.08 21.26 76.232 21.964 75.128 22.46C74.04 22.94 72.752 23.18 71.264 23.18H67.88V27.812H63.992V11.012H71.264ZM71.048 20.012C72.216 20.012 73.104 19.764 73.712 19.268C74.32 18.756 74.624 18.036 74.624 17.108C74.624 16.164 74.32 15.444 73.712 14.948C73.104 14.436 72.216 14.18 71.048 14.18H67.88V20.012H71.048ZM94.3438 24.692V27.812H81.3358V11.012H94.0318V14.132H85.1998V17.78H92.9998V20.804H85.1998V24.692H94.3438ZM100.917 14.18H95.5413V11.012H110.181V14.18H104.805V27.812H100.917V14.18ZM122.977 27.812L119.737 23.132H119.545H116.161V27.812H112.273V11.012H119.545C121.033 11.012 122.321 11.26 123.409 11.756C124.513 12.252 125.361 12.956 125.953 13.868C126.545 14.78 126.841 15.86 126.841 17.108C126.841 18.356 126.537 19.436 125.929 20.348C125.337 21.244 124.489 21.932 123.385 22.412L127.153 27.812H122.977ZM122.905 17.108C122.905 16.164 122.601 15.444 121.993 14.948C121.385 14.436 120.497 14.18 119.329 14.18H116.161V20.036H119.329C120.497 20.036 121.385 19.78 121.993 19.268C122.601 18.756 122.905 18.036 122.905 17.108ZM138.058 28.1C136.314 28.1 134.738 27.724 133.33 26.972C131.938 26.22 130.842 25.188 130.042 23.876C129.258 22.548 128.866 21.06 128.866 19.412C128.866 17.764 129.258 16.284 130.042 14.972C130.842 13.644 131.938 12.604 133.33 11.852C134.738 11.1 136.314 10.724 138.058 10.724C139.802 10.724 141.37 11.1 142.762 11.852C144.154 12.604 145.25 13.644 146.05 14.972C146.85 16.284 147.25 17.764 147.25 19.412C147.25 21.06 146.85 22.548 146.05 23.876C145.25 25.188 144.154 26.22 142.762 26.972C141.37 27.724 139.802 28.1 138.058 28.1ZM138.058 24.788C139.05 24.788 139.946 24.564 140.746 24.116C141.546 23.652 142.17 23.012 142.618 22.196C143.082 21.38 143.314 20.452 143.314 19.412C143.314 18.372 143.082 17.444 142.618 16.628C142.17 15.812 141.546 15.18 140.746 14.732C139.946 14.268 139.05 14.036 138.058 14.036C137.066 14.036 136.17 14.268 135.37 14.732C134.57 15.18 133.938 15.812 133.474 16.628C133.026 17.444 132.802 18.372 132.802 19.412C132.802 20.452 133.026 21.38 133.474 22.196C133.938 23.012 134.57 23.652 135.37 24.116C136.17 24.564 137.066 24.788 138.058 24.788ZM165.58 11.012V27.812H162.388L154.012 17.612V27.812H150.172V11.012H153.388L161.74 21.212V11.012H165.58ZM180.907 19.148H184.459V25.964C183.547 26.652 182.491 27.18 181.291 27.548C180.091 27.916 178.883 28.1 177.667 28.1C175.923 28.1 174.355 27.732 172.963 26.996C171.571 26.244 170.475 25.212 169.675 23.9C168.891 22.572 168.499 21.076 168.499 19.412C168.499 17.748 168.891 16.26 169.675 14.948C170.475 13.62 171.579 12.588 172.987 11.852C174.395 11.1 175.979 10.724 177.739 10.724C179.211 10.724 180.547 10.972 181.747 11.468C182.947 11.964 183.955 12.684 184.771 13.628L182.275 15.932C181.075 14.668 179.627 14.036 177.931 14.036C176.859 14.036 175.907 14.26 175.075 14.708C174.243 15.156 173.595 15.788 173.131 16.604C172.667 17.42 172.435 18.356 172.435 19.412C172.435 20.452 172.667 21.38 173.131 22.196C173.595 23.012 174.235 23.652 175.051 24.116C175.883 24.564 176.827 24.788 177.883 24.788C179.003 24.788 180.011 24.548 180.907 24.068V19.148ZM65.399 40.9C64.8197 40.9 64.2587 40.812 63.716 40.636C63.1807 40.4527 62.759 40.218 62.451 39.932L62.858 39.074C63.1513 39.338 63.5253 39.5543 63.98 39.723C64.442 39.8843 64.915 39.965 65.399 39.965C66.037 39.965 66.5137 39.8587 66.829 39.646C67.1443 39.426 67.302 39.1363 67.302 38.777C67.302 38.513 67.214 38.3003 67.038 38.139C66.8693 37.9703 66.6567 37.842 66.4 37.754C66.1507 37.666 65.795 37.567 65.333 37.457C64.7537 37.3177 64.2843 37.1783 63.925 37.039C63.573 36.8997 63.2687 36.687 63.012 36.401C62.7627 36.1077 62.638 35.7153 62.638 35.224C62.638 34.8133 62.7443 34.443 62.957 34.113C63.177 33.783 63.507 33.519 63.947 33.321C64.387 33.123 64.9333 33.024 65.586 33.024C66.0407 33.024 66.488 33.0827 66.928 33.2C67.368 33.3173 67.7457 33.486 68.061 33.706L67.698 34.586C67.3753 34.3807 67.0307 34.2267 66.664 34.124C66.2973 34.014 65.938 33.959 65.586 33.959C64.9627 33.959 64.4933 34.0727 64.178 34.3C63.87 34.5273 63.716 34.8207 63.716 35.18C63.716 35.444 63.804 35.6603 63.98 35.829C64.156 35.9903 64.3723 36.1187 64.629 36.214C64.893 36.302 65.2487 36.3973 65.696 36.5C66.2753 36.6393 66.741 36.7787 67.093 36.918C67.445 37.0573 67.7457 37.27 67.995 37.556C68.2517 37.842 68.38 38.227 68.38 38.711C68.38 39.1143 68.27 39.4847 68.05 39.822C67.83 40.152 67.4963 40.416 67.049 40.614C66.6017 40.8047 66.0517 40.9 65.399 40.9ZM73.463 40.9C72.6857 40.9 71.9854 40.7313 71.362 40.394C70.7387 40.0493 70.2474 39.5763 69.888 38.975C69.536 38.3737 69.36 37.7027 69.36 36.962C69.36 36.2213 69.536 35.5503 69.888 34.949C70.2474 34.3477 70.7387 33.8783 71.362 33.541C71.9854 33.1963 72.6857 33.024 73.463 33.024C74.233 33.024 74.9297 33.1963 75.553 33.541C76.1764 33.8783 76.664 34.3477 77.016 34.949C77.368 35.543 77.544 36.214 77.544 36.962C77.544 37.71 77.368 38.3847 77.016 38.986C76.664 39.58 76.1764 40.0493 75.553 40.394C74.9297 40.7313 74.233 40.9 73.463 40.9ZM73.463 39.921C74.0277 39.921 74.5337 39.7927 74.981 39.536C75.4357 39.2793 75.7914 38.9273 76.048 38.48C76.312 38.0253 76.444 37.5193 76.444 36.962C76.444 36.4047 76.312 35.9023 76.048 35.455C75.7914 35.0003 75.4357 34.6447 74.981 34.388C74.5337 34.1313 74.0277 34.003 73.463 34.003C72.8984 34.003 72.385 34.1313 71.923 34.388C71.4684 34.6447 71.109 35.0003 70.845 35.455C70.5884 35.9023 70.46 36.4047 70.46 36.962C70.46 37.5193 70.5884 38.0253 70.845 38.48C71.109 38.9273 71.4684 39.2793 71.923 39.536C72.385 39.7927 72.8984 39.921 73.463 39.921ZM80.3253 34.069V36.753H84.1863V37.699H80.3253V40.812H79.2253V33.112H84.6593V34.069H80.3253ZM87.7904 34.069H85.1504V33.112H91.5194V34.069H88.8794V40.812H87.7904V34.069ZM103.511 33.112L100.937 40.812H99.7816L97.6806 34.663L95.5796 40.812H94.4026L91.8286 33.112H92.9616L95.0406 39.371L97.2076 33.112H98.2196L100.343 39.404L102.466 33.112H103.511ZM109.515 38.887H105.423L104.576 40.812H103.443L106.93 33.112H108.019L111.517 40.812H110.362L109.515 38.887ZM109.13 38.007L107.469 34.234L105.808 38.007H109.13ZM117.814 40.812L116.153 38.447C115.947 38.4617 115.786 38.469 115.669 38.469H113.766V40.812H112.666V33.112H115.669C116.666 33.112 117.451 33.3503 118.023 33.827C118.595 34.3037 118.881 34.96 118.881 35.796C118.881 36.39 118.734 36.896 118.441 37.314C118.147 37.732 117.729 38.0363 117.187 38.227L119.013 40.812H117.814ZM115.636 37.534C116.332 37.534 116.864 37.3837 117.231 37.083C117.597 36.7823 117.781 36.3533 117.781 35.796C117.781 35.2387 117.597 34.8133 117.231 34.52C116.864 34.2193 116.332 34.069 115.636 34.069H113.766V37.534H115.636ZM126.246 39.855V40.812H120.658V33.112H126.092V34.069H121.758V36.434H125.619V37.369H121.758V39.855H126.246ZM133.225 40.9C132.646 40.9 132.085 40.812 131.542 40.636C131.007 40.4527 130.585 40.218 130.277 39.932L130.684 39.074C130.978 39.338 131.352 39.5543 131.806 39.723C132.268 39.8843 132.741 39.965 133.225 39.965C133.863 39.965 134.34 39.8587 134.655 39.646C134.971 39.426 135.128 39.1363 135.128 38.777C135.128 38.513 135.04 38.3003 134.864 38.139C134.696 37.9703 134.483 37.842 134.226 37.754C133.977 37.666 133.621 37.567 133.159 37.457C132.58 37.3177 132.111 37.1783 131.751 37.039C131.399 36.8997 131.095 36.687 130.838 36.401C130.589 36.1077 130.464 35.7153 130.464 35.224C130.464 34.8133 130.571 34.443 130.783 34.113C131.003 33.783 131.333 33.519 131.773 33.321C132.213 33.123 132.76 33.024 133.412 33.024C133.867 33.024 134.314 33.0827 134.754 33.2C135.194 33.3173 135.572 33.486 135.887 33.706L135.524 34.586C135.202 34.3807 134.857 34.2267 134.49 34.124C134.124 34.014 133.764 33.959 133.412 33.959C132.789 33.959 132.32 34.0727 132.004 34.3C131.696 34.5273 131.542 34.8207 131.542 35.18C131.542 35.444 131.63 35.6603 131.806 35.829C131.982 35.9903 132.199 36.1187 132.455 36.214C132.719 36.302 133.075 36.3973 133.522 36.5C134.102 36.6393 134.567 36.7787 134.919 36.918C135.271 37.0573 135.572 37.27 135.821 37.556C136.078 37.842 136.206 38.227 136.206 38.711C136.206 39.1143 136.096 39.4847 135.876 39.822C135.656 40.152 135.323 40.416 134.875 40.614C134.428 40.8047 133.878 40.9 133.225 40.9ZM141.289 40.9C140.512 40.9 139.812 40.7313 139.188 40.394C138.565 40.0493 138.074 39.5763 137.714 38.975C137.362 38.3737 137.186 37.7027 137.186 36.962C137.186 36.2213 137.362 35.5503 137.714 34.949C138.074 34.3477 138.565 33.8783 139.188 33.541C139.812 33.1963 140.512 33.024 141.289 33.024C142.059 33.024 142.756 33.1963 143.379 33.541C144.003 33.8783 144.49 34.3477 144.842 34.949C145.194 35.543 145.37 36.214 145.37 36.962C145.37 37.71 145.194 38.3847 144.842 38.986C144.49 39.58 144.003 40.0493 143.379 40.394C142.756 40.7313 142.059 40.9 141.289 40.9ZM141.289 39.921C141.854 39.921 142.36 39.7927 142.807 39.536C143.262 39.2793 143.618 38.9273 143.874 38.48C144.138 38.0253 144.27 37.5193 144.27 36.962C144.27 36.4047 144.138 35.9023 143.874 35.455C143.618 35.0003 143.262 34.6447 142.807 34.388C142.36 34.1313 141.854 34.003 141.289 34.003C140.725 34.003 140.211 34.1313 139.749 34.388C139.295 34.6447 138.935 35.0003 138.671 35.455C138.415 35.9023 138.286 36.4047 138.286 36.962C138.286 37.5193 138.415 38.0253 138.671 38.48C138.935 38.9273 139.295 39.2793 139.749 39.536C140.211 39.7927 140.725 39.921 141.289 39.921ZM147.051 33.112H148.151V39.855H152.32V40.812H147.051V33.112ZM156.644 40.9C155.617 40.9 154.818 40.6067 154.246 40.02C153.674 39.4333 153.388 38.59 153.388 37.49V33.112H154.488V37.446C154.488 39.096 155.21 39.921 156.655 39.921C157.359 39.921 157.898 39.7193 158.272 39.316C158.646 38.9053 158.833 38.282 158.833 37.446V33.112H159.9V37.49C159.9 38.5973 159.614 39.4443 159.042 40.031C158.47 40.6103 157.67 40.9 156.644 40.9ZM163.544 34.069H160.904V33.112H167.273V34.069H164.633V40.812H163.544V34.069ZM168.471 33.112H169.571V40.812H168.471V33.112ZM175.353 40.9C174.575 40.9 173.875 40.7313 173.252 40.394C172.628 40.0493 172.137 39.5763 171.778 38.975C171.426 38.3737 171.25 37.7027 171.25 36.962C171.25 36.2213 171.426 35.5503 171.778 34.949C172.137 34.3477 172.628 33.8783 173.252 33.541C173.875 33.1963 174.575 33.024 175.353 33.024C176.123 33.024 176.819 33.1963 177.443 33.541C178.066 33.8783 178.554 34.3477 178.906 34.949C179.258 35.543 179.434 36.214 179.434 36.962C179.434 37.71 179.258 38.3847 178.906 38.986C178.554 39.58 178.066 40.0493 177.443 40.394C176.819 40.7313 176.123 40.9 175.353 40.9ZM175.353 39.921C175.917 39.921 176.423 39.7927 176.871 39.536C177.325 39.2793 177.681 38.9273 177.938 38.48C178.202 38.0253 178.334 37.5193 178.334 36.962C178.334 36.4047 178.202 35.9023 177.938 35.455C177.681 35.0003 177.325 34.6447 176.871 34.388C176.423 34.1313 175.917 34.003 175.353 34.003C174.788 34.003 174.275 34.1313 173.813 34.388C173.358 34.6447 172.999 35.0003 172.735 35.455C172.478 35.9023 172.35 36.4047 172.35 36.962C172.35 37.5193 172.478 38.0253 172.735 38.48C172.999 38.9273 173.358 39.2793 173.813 39.536C174.275 39.7927 174.788 39.921 175.353 39.921ZM187.737 33.112V40.812H186.835L182.215 35.07V40.812H181.115V33.112H182.017L186.637 38.854V33.112H187.737Z" fill="#00D285"/>
<path d="M57.4313 23.7052C57.4313 34.6952 47.3746 43.798 34.7157 43.798C22.0567 43.798 12 34.6952 12 23.7052C12 12.7151 22.0567 3.6123 34.7157 3.6123C47.3746 3.6123 57.4313 12.7151 57.4313 23.7052Z" fill="#00D285" stroke="white" stroke-width="2"/>
<path d="M12.395 28.2545L46.341 6.33447" stroke="white"/>
<path d="M23.0903 41.9029L57.0363 19.9829" stroke="white"/>
</svg>
