<svg width="350" height="580" viewBox="0 0 350 580" fill="none" xmlns="http://www.w3.org/2000/svg">
<path d="M2.99977 0.5C-10.5001 31.5 42.8229 85.2856 73.7599 72.116C112.431 55.654 65.9434 30.0464 44.9622 46.2036C23.981 62.3608 2.58837 91.0169 33.0317 112.661C77.9999 144.633 60.203 89.5689 151.925 122.112C193.888 137 221.016 191.402 193.888 218.14C151.925 259.5 185.265 275.757 219 287.951C246 297.711 250.92 257.952 271.5 285C306.5 331 197.617 336.632 208 383.5C221.118 442.714 296.5 392.232 296.5 440C296.5 478.5 238 495 280.281 541.284C313.311 577.44 350.5 562.5 349 579.5" stroke="#00D285"/>
</svg>
