<svg width="30" height="30" viewBox="0 0 30 30" fill="none" xmlns="http://www.w3.org/2000/svg">
<path d="M27.0047 18.6047C27 18.6047 26.9953 18.6047 26.9953 18.6047C26.4515 17.4516 25.6078 16.2141 24.5343 14.9672C27.4687 11.5266 28.4484 8.35312 27.1453 6.40312C25.964 4.64531 23.1843 4.20938 19.4625 5.18438C18.1968 1.87969 16.3406 0 14.3062 0C13.4765 0 12.6843 0.304688 11.939 0.9C11.6765 0.782812 11.3859 0.717187 11.0812 0.717187C9.90935 0.717187 8.95778 1.66875 8.95778 2.84063C8.95778 3.39844 9.1781 3.90469 9.53435 4.28906C9.39841 4.58906 9.26716 4.90312 9.14528 5.23125C5.39528 4.26094 2.59684 4.70625 1.42497 6.47812C0.131219 8.4375 1.12497 11.6062 4.07809 15.0234C1.14372 18.4688 0.168719 21.6469 1.47184 23.5969C1.74841 24.0047 2.11403 24.3469 2.56403 24.6141C2.56872 25.7812 3.52028 26.7281 4.68747 26.7281C5.62966 26.7281 6.41716 26.1094 6.69841 25.2609C7.46716 25.1859 8.28747 25.0359 9.14997 24.8109C10.4109 28.1203 12.2718 30.0047 14.3062 30.0047C16.35 30.0047 18.2109 28.1062 19.4765 24.7734C20.7703 25.1062 21.9562 25.2844 22.9922 25.2844C24.9609 25.2844 26.4187 24.6938 27.1875 23.5312C27.3422 23.3016 27.4593 23.0484 27.5484 22.7812C28.4531 22.5375 29.1281 21.7172 29.1281 20.7375C29.1328 19.5563 28.1765 18.6047 27.0047 18.6047ZM19.3734 10.2891C18.9422 9.975 18.4922 9.66562 18.0375 9.36094C17.2968 8.86875 16.5281 8.40469 15.7547 7.97344C16.7343 7.51875 17.6859 7.14375 18.6093 6.83906C18.9328 7.89844 19.1906 9.06563 19.3734 10.2891ZM13.2093 2.84063C13.2093 2.47031 13.1062 2.12812 12.9375 1.82344C13.3875 1.50469 13.8468 1.34062 14.3062 1.34062C15.7125 1.34062 17.1328 2.91094 18.1687 5.56875C16.9172 5.98125 15.614 6.525 14.2828 7.19531C12.9797 6.54375 11.6906 6.01406 10.4343 5.60625C10.5234 5.37187 10.6172 5.14687 10.7156 4.92656C10.8328 4.94531 10.9547 4.96406 11.0812 4.96406C12.2578 4.96406 13.2093 4.0125 13.2093 2.84063ZM11.0859 2.05781C11.5172 2.05781 11.8687 2.40937 11.8687 2.84063C11.8687 3.27187 11.5172 3.62344 11.0859 3.62344C10.6547 3.62344 10.3031 3.27187 10.3031 2.84063C10.3031 2.40937 10.6547 2.05781 11.0859 2.05781ZM9.99372 6.88125C10.9172 7.18125 11.8593 7.54219 12.8203 7.98281C12.0468 8.42344 11.2828 8.89219 10.5515 9.38438C10.1062 9.68437 9.6656 9.98906 9.24372 10.3031C9.42185 9.08906 9.67497 7.93125 9.99372 6.88125ZM2.54528 7.21875C3.35153 6 5.68122 5.74219 8.70466 6.50156C8.24997 8.00625 7.92185 9.70312 7.73903 11.4703C6.73591 12.2906 5.81247 13.1484 4.98278 14.0203C2.59684 11.2125 1.64528 8.58281 2.54528 7.21875ZM7.59372 16.6594C6.98903 16.125 6.41716 15.5766 5.89216 15.0234C6.42184 14.4609 6.98903 13.9125 7.59372 13.3688C7.5656 13.9125 7.55622 14.4563 7.55622 15C7.55153 15.5578 7.5656 16.1109 7.59372 16.6594ZM4.68747 25.3828C4.25622 25.3828 3.90466 25.0312 3.90466 24.6C3.90466 24.1687 4.25622 23.8172 4.68747 23.8172C5.11872 23.8172 5.47028 24.1687 5.47028 24.6C5.47028 25.0312 5.11872 25.3828 4.68747 25.3828ZM6.68903 23.9109C6.4031 23.0766 5.61559 22.4719 4.68747 22.4719C4.00778 22.4719 3.40778 22.8 3.01872 23.2969C2.84528 23.1656 2.69997 23.0156 2.58747 22.8469C1.66403 21.4641 2.58278 18.8859 4.98747 16.0219C5.81716 16.8844 6.73591 17.7328 7.73903 18.5438C7.92653 20.3156 8.25466 22.0219 8.71403 23.5312C8.00153 23.7141 7.32185 23.8406 6.68903 23.9109ZM9.24372 19.7063C9.67966 20.025 10.125 20.3344 10.5797 20.6344C11.3203 21.1266 12.0843 21.5906 12.8625 22.0266C11.8875 22.4813 10.9359 22.8516 10.0078 23.1562C9.68435 22.0922 9.42653 20.9297 9.24372 19.7063ZM14.3062 28.6547C12.8953 28.6547 11.475 27.0844 10.439 24.4219C11.7 24.0094 13.0031 23.4656 14.325 22.7953C15.6328 23.4469 16.9218 23.9766 18.1828 24.3844C17.1468 27.075 15.7218 28.6547 14.3062 28.6547ZM18.6234 23.1187C17.7 22.8188 16.7531 22.4531 15.7922 22.0172C16.5609 21.5813 17.325 21.1125 18.0703 20.6156C18.5156 20.3156 18.9562 20.0062 19.3781 19.6922C19.1953 20.9109 18.9375 22.0688 18.6234 23.1187ZM19.5937 17.8313C18.8765 18.4031 18.1172 18.9609 17.3203 19.4953C16.3453 20.1469 15.3422 20.7469 14.325 21.2906C13.3031 20.7516 12.2906 20.1562 11.3203 19.5141C10.5187 18.9844 9.75466 18.4266 9.0281 17.8547C8.94372 16.9266 8.89684 15.9703 8.89684 15.0047C8.89684 14.0578 8.94372 13.1062 9.02341 12.1687C9.7406 11.5969 10.5 11.0344 11.3015 10.5C12.2625 9.85312 13.2656 9.25781 14.2922 8.71406C15.3187 9.24844 16.3265 9.84375 17.2968 10.4859C18.1031 11.0203 18.8672 11.5781 19.589 12.15C19.6734 13.0828 19.7203 14.0344 19.7203 15C19.7203 15.9469 19.6734 16.8938 19.5937 17.8313ZM26.0297 7.15313C26.939 8.5125 25.9968 11.1469 23.625 13.9734C22.8 13.1062 21.8765 12.2625 20.8781 11.4563C20.6906 9.675 20.3578 7.96406 19.8984 6.45937C22.9406 5.68125 25.2047 5.92969 26.0297 7.15313ZM21.0234 13.3406C21.6281 13.875 22.1953 14.4234 22.7203 14.9766C22.1953 15.5297 21.6328 16.0828 21.0234 16.6266C21.0515 16.0875 21.0609 15.5437 21.0609 15.0047C21.0656 14.4422 21.0515 13.8891 21.0234 13.3406ZM26.0718 22.7812C25.2656 24 22.9359 24.2578 19.9125 23.4984C20.3672 21.9984 20.6953 20.2969 20.8828 18.5203C21.8906 17.6906 22.8093 16.8375 23.6297 15.9703C24.5343 17.0344 25.2422 18.0797 25.7203 19.05C25.214 19.4391 24.8812 20.0438 24.8812 20.7281C24.8812 21.5906 25.3968 22.3266 26.1328 22.6594C26.1093 22.7016 26.0953 22.7437 26.0718 22.7812ZM27.0187 21.5109C27.014 21.5109 27.0047 21.5109 27 21.5109C26.5734 21.5063 26.2218 21.1594 26.2218 20.7281C26.2218 20.2969 26.5734 19.9453 27.0047 19.9453C27.4359 19.9453 27.7875 20.2969 27.7875 20.7281C27.7875 21.1594 27.4453 21.5063 27.0187 21.5109Z" fill="#000D2F"/>
</svg>
