<svg width="32" height="32" viewBox="0 0 32 32" fill="none" xmlns="http://www.w3.org/2000/svg">
<path fill-rule="evenodd" clip-rule="evenodd" d="M30 14C30 12.343 28.657 11 27 11H19C17.343 11 16 12.343 16 14C16 17.271 16 23.729 16 27C16 28.657 17.343 30 19 30H27C28.657 30 30 28.657 30 27V14ZM28 14V27C28 27.552 27.552 28 27 28H19C18.448 28 18 27.552 18 27C18 23.729 18 17.271 18 14C18 13.448 18.448 13 19 13H27C27.552 13 28 13.448 28 14Z" fill="#000D2F"/>
<path fill-rule="evenodd" clip-rule="evenodd" d="M21 26H25C25.552 26 26 25.552 26 25C26 24.448 25.552 24 25 24H21C20.448 24 20 24.448 20 25C20 25.552 20.448 26 21 26ZM18 16C18 15.448 17.552 15 17 15H3C3 15 2 16.94 2 16.002C2 18.762 4.238 21 6.998 21C11.136 21 17 21 17 21C17.552 21 18 20.552 18 20V16ZM4.17 17H16V19H6.998C5.692 19 4.581 18.165 4.17 17Z" fill="#000D2F"/>
<path fill-rule="evenodd" clip-rule="evenodd" d="M7 16V5C7 4.735 7.105 4.48 7.293 4.293C7.48 4.105 7.735 4 8 4H21C21.265 4 21.52 4.105 21.707 4.293C21.895 4.48 22 4.735 22 5V12C22 12.552 22.448 13 23 13C23.552 13 24 12.552 24 12C24 12 24 7.652 24 5C24 4.204 23.684 3.441 23.121 2.879C22.559 2.316 21.796 2 21 2C17.729 2 11.271 2 8 2C7.204 2 6.441 2.316 5.879 2.879C5.316 3.441 5 4.204 5 5V16C5 16.552 5.448 17 6 17C6.552 17 7 16.552 7 16Z" fill="#000D2F"/>
<path d="M3 17C3.55228 17 4 16.5523 4 16C4 15.4477 3.55228 15 3 15C2.44772 15 2 15.4477 2 16C2 16.5523 2.44772 17 3 17Z" fill="#000D2F"/>
</svg>
