<svg width="30" height="30" viewBox="0 0 30 30" fill="none" xmlns="http://www.w3.org/2000/svg">
<path d="M10.7896 15.2365C10.1596 13.1775 5.4634 12.8982 3.78456 13.6096C2.25571 14.2557 -0.741405 18.0346 0.515134 19.7423C1.16706 20.6273 2.93071 20.258 3.77475 20.2373C5.54821 20.1928 5.03936 20.07 4.71167 21.5336C4.62225 21.9334 4.48667 22.9569 4.58475 23.3676C4.78494 24.2059 4.99494 24.4234 5.82167 24.6917C6.70609 24.9778 7.9009 24.7148 8.8136 24.7263C10.0107 24.7419 11.1957 24.9236 12.3859 25.0321C14.9284 25.2628 17.4905 25.3644 20.0422 25.4163C21.2076 25.4405 24.0121 25.8184 24.9363 24.7851C25.7792 23.8425 25.3055 21.9859 25.0476 20.9561C24.6899 19.5253 24.4713 19.7111 23.4565 18.6305C22.2046 17.2973 21.4886 15.8348 19.8703 14.8182C18.4026 13.8951 16.7301 13.5894 15.0196 13.4625C11.1074 13.1711 8.14148 15.6992 6.1384 18.8417C5.63763 19.6269 6.88552 20.3509 7.3834 19.5698C10.1492 15.2313 15.9063 12.9657 20.1894 16.8744C21.1147 17.7184 21.9507 18.8705 22.6967 19.8807C23.1784 20.5332 23.6122 21.1898 23.7542 22.0701C24.0374 23.8309 23.8944 23.9048 21.9501 23.9953C18.1505 24.1725 14.2874 23.708 10.5092 23.393C9.08071 23.2742 6.21456 23.9509 6.10263 21.9167C6.05244 21.0086 6.90686 20.3273 6.68244 19.3638C6.64995 19.2431 6.58633 19.133 6.49794 19.0446C6.40955 18.9563 6.29949 18.8926 6.17879 18.8601C5.71783 18.7494 5.25571 18.7967 4.78436 18.7909C3.86475 18.7811 2.10571 19.0471 1.87263 18.5025C1.30725 17.183 3.71821 15.7603 4.3961 15.4148C5.29263 14.5938 6.29129 14.4276 7.39206 14.9163C8.06706 15.1355 8.73513 15.3692 9.39859 15.6196C9.66975 16.5046 11.0619 16.1273 10.789 15.2359L10.7896 15.2365Z" fill="#000D2F"/>
<path d="M23.404 20.3809C24.8239 20.3832 26.2794 20.4876 27.6958 20.389C28.215 20.3526 28.7458 20.3353 29.1785 20.014C30.7292 18.8636 28.8825 16.9459 28.3258 15.8619C26.6273 12.5532 22.1804 12.2653 19.2606 14.1403C18.4817 14.6405 19.204 15.8896 19.9881 15.3865C21.06 14.6976 22.2496 14.299 23.5373 14.3982C25.466 14.5476 26.3787 15.5128 27.2665 17.0809C27.6958 17.8396 28.4637 18.5232 27.3381 18.9461C26.4173 19.2922 24.3773 18.9403 23.4035 18.9386C22.4758 18.9369 22.4746 20.3792 23.4035 20.3809H23.404Z" fill="#000D2F"/>
<path d="M21.8972 13.3552C21.9814 12.6722 21.9001 12.1172 21.843 11.452C21.7622 10.5139 22.3991 10.0679 23.2968 9.97044C24.1599 9.8764 24.6064 10.196 24.7114 11.062C24.7853 11.6724 24.806 12.5302 24.5603 13.0945C24.1933 13.9368 25.4355 14.6718 25.8058 13.822C26.5864 12.0289 26.4099 8.65275 23.8847 8.50563C22.6628 8.4341 21.5314 8.82294 20.7762 9.80544C20.4301 10.2549 20.2812 10.7152 20.3435 11.2858C20.4232 12.0116 20.5466 12.6104 20.4549 13.3552C20.3418 14.2743 21.7853 14.2662 21.8972 13.3552ZM8.617 13.672C8.59508 13.3581 9.1045 13.0437 9.26893 12.8135C9.47662 12.5227 9.60239 12.202 9.6745 11.8529C9.78296 11.3279 9.78758 10.6056 9.64335 10.0829C9.3047 8.85294 7.77643 8.33486 6.65835 8.31121C5.3995 8.28352 4.13143 8.63025 3.64393 9.92429C3.12008 11.3158 3.802 12.6704 4.46662 13.8774C4.91431 14.6908 6.15989 13.9639 5.71162 13.1493C5.30835 12.4166 4.66739 11.4474 4.94662 10.5681C5.24085 9.64102 6.71777 9.53659 7.49547 9.88621C8.32047 10.2572 8.5772 11.152 8.0897 11.9372C7.69739 12.5706 7.1147 12.8216 7.1747 13.672C7.23989 14.5927 8.6822 14.5997 8.617 13.672ZM13.1187 13.2041C12.3797 13.0195 11.9891 11.2864 11.8432 10.706C11.6522 9.94506 11.5662 9.13102 11.7716 8.36083C12.2805 6.45121 14.7624 5.38506 16.5578 6.19102C18.1732 6.91563 18.5793 9.73563 18.0255 11.3026C17.6407 12.3918 16.5255 12.8879 15.9814 13.9218C15.5499 14.7427 16.7949 15.4726 17.227 14.6499C17.7682 13.6201 18.9497 13.1401 19.4233 12.0589C19.916 10.9339 19.6149 9.42986 19.4407 8.26852C19.301 7.33506 19.1193 6.09179 18.3635 5.43583C17.4809 4.66794 15.7616 4.40429 14.643 4.52429C12.4391 4.76083 10.582 6.37333 10.267 8.58294C10.0178 10.3258 10.7193 14.0926 12.7351 14.5951C13.6362 14.8201 14.0205 13.4297 13.1187 13.2047V13.2041Z" fill="#000D2F"/>
</svg>
