<svg width="22" height="30" viewBox="0 0 22 30" fill="none" xmlns="http://www.w3.org/2000/svg">
<path d="M18.5 11.6869V8.4375C18.5 6.44838 17.7098 4.54072 16.3033 3.1342C14.8968 1.72768 12.9891 0.9375 11 0.9375C9.01088 0.9375 7.10322 1.72768 5.6967 3.1342C4.29018 4.54072 3.5 6.44838 3.5 8.4375V11.6878C1.69335 13.5953 0.686766 16.1228 0.6875 18.75C0.6875 24.4444 5.30562 29.0625 11 29.0625C16.6963 29.0625 21.3125 24.4444 21.3125 18.75C21.3125 16.0134 20.2391 13.5337 18.5 11.6869ZM5.375 8.4375C5.375 5.33531 7.89781 2.8125 11 2.8125C14.1022 2.8125 16.625 5.33531 16.625 8.4375V10.1138C14.9533 9.01896 12.9983 8.43635 11 8.4375C9.00174 8.43635 7.04667 9.01896 5.375 10.1138V8.4375ZM11 27.1875C6.33969 27.1875 2.5625 23.4103 2.5625 18.75C2.5625 14.0897 6.33969 10.3125 11 10.3125C15.6603 10.3125 19.4375 14.0897 19.4375 18.75C19.4375 23.4103 15.6603 27.1875 11 27.1875Z" fill="#000D2F"/>
</svg>
