<svg width="20" height="14" viewBox="0 0 20 14" fill="none" xmlns="http://www.w3.org/2000/svg">
<path d="M20 6.93967C20 6.89227 20 6.83841 19.9978 6.77593C19.9955 6.60142 19.9911 6.40536 19.9866 6.19637C19.9688 5.59526 19.9375 4.99631 19.8884 4.43182C19.8214 3.65405 19.7232 3.00554 19.5893 2.51862C19.448 2.01048 19.1709 1.54704 18.7859 1.17463C18.4008 0.80222 17.9213 0.533879 17.3951 0.39643C16.7634 0.232687 15.5268 0.131425 13.7857 0.0689442C12.9576 0.0387811 12.0714 0.0193904 11.1853 0.0086179C10.875 0.00430889 10.5871 0.00215451 10.3281 0H9.67188C9.41295 0.00215451 9.125 0.00430889 8.81473 0.0086179C7.92857 0.0193904 7.04241 0.0387811 6.21429 0.0689442C4.47321 0.133579 3.23438 0.234841 2.60491 0.39643C2.07857 0.533541 1.59882 0.801769 1.21371 1.17423C0.828614 1.5467 0.551697 2.01031 0.410714 2.51862C0.274554 3.00554 0.178571 3.65405 0.111607 4.43182C0.0625 4.99631 0.03125 5.59526 0.0133928 6.19637C0.00669639 6.40536 0.00446425 6.60142 0.00223211 6.77593C0.00223211 6.83841 0 6.89227 0 6.93967V7.06033C0 7.10772 -3.40931e-08 7.16159 0.00223211 7.22407C0.00446425 7.39858 0.00892854 7.59464 0.0133928 7.80363C0.03125 8.40474 0.0625 9.00369 0.111607 9.56817C0.178571 10.346 0.276786 10.9945 0.410714 11.4814C0.696429 12.5134 1.53571 13.3278 2.60491 13.6036C3.23438 13.7673 4.47321 13.8686 6.21429 13.9311C7.04241 13.9612 7.92857 13.9806 8.81473 13.9914C9.125 13.9957 9.41295 13.9978 9.67188 14H10.3281C10.5871 13.9978 10.875 13.9957 11.1853 13.9914C12.0714 13.9806 12.9576 13.9612 13.7857 13.9311C15.5268 13.8664 16.7656 13.7652 17.3951 13.6036C18.4643 13.3278 19.3036 12.5155 19.5893 11.4814C19.7254 10.9945 19.8214 10.346 19.8884 9.56817C19.9375 9.00369 19.9688 8.40474 19.9866 7.80363C19.9933 7.59464 19.9955 7.39858 19.9978 7.22407C19.9978 7.16159 20 7.10772 20 7.06033V6.93967ZM18.3929 7.05171C18.3929 7.09695 18.3929 7.14651 18.3906 7.20468C18.3884 7.37273 18.3839 7.55802 18.3795 7.75839C18.3638 8.33149 18.3326 8.90458 18.2857 9.43675C18.2254 10.1305 18.1406 10.6993 18.0357 11.0806C17.8973 11.5783 17.4911 11.9726 16.9777 12.104C16.5089 12.2247 15.3281 12.3216 13.7232 12.3798C12.9107 12.41 12.0357 12.4294 11.1629 12.4401C10.8571 12.4444 10.5737 12.4466 10.3192 12.4466H9.6808L8.83705 12.4401C7.96429 12.4294 7.09152 12.41 6.27679 12.3798C4.67188 12.3195 3.48884 12.2247 3.02232 12.104C2.50893 11.9705 2.10268 11.5783 1.96429 11.0806C1.85938 10.6993 1.77455 10.1305 1.71429 9.43675C1.66741 8.90458 1.63839 8.33149 1.62054 7.75839C1.61384 7.55802 1.61161 7.37057 1.60938 7.20468C1.60938 7.14651 1.60714 7.0948 1.60714 7.05171V6.94829C1.60714 6.90305 1.60714 6.85349 1.60938 6.79532C1.61161 6.62727 1.61607 6.44198 1.62054 6.24161C1.63616 5.66851 1.66741 5.09541 1.71429 4.56325C1.77455 3.8695 1.85938 3.30071 1.96429 2.91936C2.10268 2.42167 2.50893 2.02739 3.02232 1.89597C3.49107 1.77532 4.67188 1.67836 6.27679 1.62019C7.08929 1.59003 7.96429 1.57064 8.83705 1.55986C9.14286 1.55556 9.42634 1.5534 9.6808 1.5534H10.3192L11.1629 1.55986C12.0357 1.57064 12.9085 1.59003 13.7232 1.62019C15.3281 1.68052 16.5112 1.77532 16.9777 1.89597C17.4911 2.02955 17.8973 2.42167 18.0357 2.91936C18.1406 3.30071 18.2254 3.8695 18.2857 4.56325C18.3326 5.09541 18.3616 5.66851 18.3795 6.24161C18.3862 6.44198 18.3884 6.62942 18.3906 6.79532C18.3906 6.85349 18.3929 6.9052 18.3929 6.94829V7.05171ZM8.01339 9.88704L13.192 6.97845L8.01339 4.11296V9.88704Z" fill="white"/>
</svg>
